<svg width="640" height="640" viewBox="0 0 640 640" xmlns="http://www.w3.org/2000/svg">
<g stroke="rgb(0, 0, 0)" stroke-width="5" stroke-linecap="round" stroke-linejoin="round" fill="transparent">
<path d="M339,305 L347,282 L327,296 L320,320 Z M339,334 L320,320 L327,343 L347,357 Z M287,296 L267,282 L275,305 L295,320 Z M287,296 L295,273 L302,296 L295,320 Z M287,343 L295,320 L302,343 L295,366 Z M287,343 L295,320 L275,334 L267,357 Z M315,258 L339,258 L320,273 L295,273 Z M315,258 L339,258 L320,244 L295,244 Z M275,258 L255,244 L247,220 L267,235 Z M275,258 L250,258 L230,244 L255,244 Z M339,258 L347,235 L367,220 L359,244 Z M339,258 L364,258 L384,244 L359,244 Z M404,258 L384,244 L392,267 L411,282 Z M404,258 L411,235 L419,258 L411,282 Z M384,197 L392,174 L411,159 L404,182 Z M411,206 L419,182 L411,159 L404,182 Z M411,235 L436,235 L456,220 L431,220 Z M367,220 L347,206 L339,182 L359,197 Z M359,197 L384,197 L364,182 L339,182 Z M295,197 L320,197 L339,182 L315,182 Z M295,244 L302,220 L295,197 L287,220 Z M267,206 L275,182 L255,197 L247,220 Z M275,182 L250,182 L230,197 L255,197 Z M267,159 L275,136 L295,121 L287,145 Z M267,159 L243,159 L223,145 L247,145 Z M295,168 L302,145 L295,121 L287,145 Z M230,197 L211,182 L203,159 L223,174 Z M203,235 L178,235 L158,220 L183,220 Z M203,206 L211,182 L203,159 L195,182 Z M203,206 L178,206 L158,220 L183,220 Z M171,182 L178,159 L158,174 L151,197 Z M158,220 L134,220 L114,235 L138,235 Z M151,197 L126,197 L106,182 L131,182 Z M151,244 L158,220 L138,235 L131,258 Z M114,235 L94,220 L86,197 L106,211 Z M86,244 L94,220 L86,197 L79,220 Z M86,244 L62,244 L42,258 L66,258 Z M99,282 L106,258 L86,273 L79,296 Z M158,296 L138,282 L131,258 L151,273 Z M203,282 L211,258 L203,235 L195,258 Z M203,282 L178,282 L158,296 L183,296 Z M223,267 L230,244 L211,258 L203,282 Z M195,305 L203,282 L183,296 L175,320 Z M215,320 L223,296 L230,320 L223,343 Z M195,334 L175,320 L183,343 L203,357 Z M203,357 L195,381 L203,404 L211,381 Z M203,357 L178,357 L158,343 L183,343 Z M223,372 L203,357 L211,381 L230,395 Z M158,343 L151,366 L131,381 L138,357 Z M151,395 L131,381 L138,404 L158,419 Z M99,357 L79,343 L86,366 L106,381 Z M114,404 L106,428 L86,442 L94,419 Z M86,395 L79,419 L86,442 L94,419 Z M86,395 L62,395 L42,381 L66,381 Z M106,334 L99,357 L106,381 L114,357 Z M151,320 L126,320 L106,334 L131,334 Z M151,320 L126,320 L106,305 L131,305 Z M106,305 L114,282 L106,258 L99,282 Z M79,296 L54,296 L34,282 L59,282 Z M79,343 L54,343 L34,357 L59,357 Z M62,320 L42,305 L34,282 L54,296 Z M62,320 L54,343 L34,357 L42,334 Z M22,320 L14,343 L7,320 L14,296 Z M86,197 L66,182 L59,159 L79,174 Z M86,197 L62,197 L42,182 L66,182 Z M106,182 L114,159 L106,136 L99,159 Z M79,145 L86,121 L66,136 L59,159 Z M151,121 L126,121 L106,136 L131,136 Z M151,121 L126,121 L106,107 L131,107 Z M195,136 L171,136 L151,121 L175,121 Z M203,83 L211,60 L203,36 L195,60 Z M203,83 L178,83 L158,98 L183,98 Z M223,98 L230,74 L250,60 L243,83 Z M215,121 L223,98 L203,112 L195,136 Z M247,98 L223,98 L243,83 L267,83 Z M267,36 L243,36 L223,22 L247,22 Z M295,74 L319,74 L339,60 L315,60 Z M250,60 L230,45 L223,22 L243,36 Z M315,60 L339,60 L319,45 L295,45 Z M347,36 L372,36 L392,22 L367,22 Z M364,60 L372,36 L392,22 L384,45 Z M456,98 L464,74 L484,60 L476,83 Z M411,83 L419,60 L411,36 L404,60 Z M392,98 L372,83 L364,60 L384,74 Z M431,98 L456,98 L436,83 L411,83 Z M419,136 L399,121 L392,98 L411,112 Z M419,136 L444,136 L464,121 L439,121 Z M464,121 L488,121 L508,107 L484,107 Z M436,159 L444,136 L464,121 L456,145 Z M464,197 L444,182 L436,159 L456,174 Z M464,197 L488,197 L508,182 L484,182 Z M484,136 L508,136 L488,121 L464,121 Z M508,182 L516,159 L508,136 L501,159 Z M528,121 L553,121 L573,136 L548,136 Z M536,145 L556,159 L548,136 L528,121 Z M573,182 L592,197 L600,220 L580,206 Z M528,197 L536,174 L556,159 L548,182 Z M528,197 L553,197 L573,182 L548,182 Z M520,220 L528,197 L536,220 L528,244 Z M573,258 L580,235 L600,220 L592,244 Z M528,244 L553,244 L573,258 L548,258 Z M508,258 L528,273 L536,296 L516,282 Z M536,296 L560,296 L580,282 L556,282 Z M553,320 L573,334 L580,357 L560,343 Z M553,320 L560,296 L580,282 L573,305 Z M592,320 L600,296 L608,320 L600,343 Z M592,244 L600,220 L608,244 L600,267 Z M592,197 L600,174 L608,197 L600,220 Z M592,395 L600,372 L608,395 L600,419 Z M573,381 L592,395 L600,419 L580,404 Z M528,395 L553,395 L573,381 L548,381 Z M536,343 L560,343 L580,357 L556,357 Z M508,381 L516,357 L536,343 L528,366 Z M501,357 L508,334 L516,357 L508,381 Z M501,404 L520,419 L528,442 L508,428 Z M456,419 L464,395 L484,381 L476,404 Z M456,419 L481,419 L501,404 L476,404 Z M464,442 L456,465 L436,480 L444,457 Z M464,442 L488,442 L508,457 L484,457 Z M431,419 L456,419 L436,433 L411,433 Z M508,457 L501,480 L508,503 L516,480 Z M528,442 L548,457 L556,480 L536,465 Z M528,442 L553,442 L573,457 L548,457 Z M484,503 L508,503 L488,518 L464,518 Z M436,480 L456,494 L464,518 L444,503 Z M419,503 L411,527 L392,541 L399,518 Z M419,503 L444,503 L464,518 L439,518 Z M392,494 L384,518 L392,541 L399,518 Z M411,433 L404,457 L411,480 L419,457 Z M411,404 L436,404 L456,419 L431,419 Z M384,442 L404,457 L411,480 L392,465 Z M367,419 L359,442 L339,457 L347,433 Z M359,442 L384,442 L364,457 L339,457 Z M347,480 L339,503 L320,518 L327,494 Z M347,480 L372,480 L392,494 L367,494 Z M315,457 L339,457 L320,471 L295,471 Z M295,471 L287,494 L295,518 L302,494 Z M295,442 L320,442 L339,457 L315,457 Z M275,457 L250,457 L230,442 L255,442 Z M295,395 L287,419 L295,442 L302,419 Z M339,381 L359,395 L367,419 L347,404 Z M339,381 L364,381 L384,395 L359,395 Z M315,381 L339,381 L320,395 L295,395 Z M315,381 L339,381 L320,366 L295,366 Z M411,357 L419,334 L439,320 L431,343 Z M411,357 L436,357 L456,343 L431,343 Z M404,381 L411,357 L419,381 L411,404 Z M404,381 L411,357 L392,372 L384,395 Z M456,343 L476,357 L484,381 L464,366 Z M464,320 L488,320 L508,305 L484,305 Z M464,320 L488,320 L508,334 L484,334 Z M456,296 L464,273 L484,258 L476,282 Z M501,282 L508,258 L516,282 L508,305 Z M456,220 L476,235 L484,258 L464,244 Z M456,220 L481,220 L501,235 L476,235 Z M411,282 L431,296 L439,320 L419,305 Z M411,282 L436,282 L456,296 L431,296 Z M384,320 L392,296 L399,320 L392,343 Z M367,296 L392,296 L372,282 L347,282 Z M367,343 L392,343 L372,357 L347,357 Z M431,220 L456,220 L436,206 L411,206 Z M501,235 L508,211 L528,197 L520,220 Z M275,381 L267,404 L247,419 L255,395 Z M275,381 L250,381 L230,395 L255,395 Z M267,357 L243,357 L223,343 L247,343 Z M230,442 L223,465 L203,480 L211,457 Z M203,433 L195,457 L203,480 L211,457 Z M203,433 L178,433 L158,419 L183,419 Z M203,404 L178,404 L158,419 L183,419 Z M267,433 L247,419 L255,442 L275,457 Z M158,419 L134,419 L114,404 L138,404 Z M151,442 L126,442 L106,457 L131,457 Z M106,457 L99,480 L106,503 L114,480 Z M86,442 L79,465 L59,480 L66,457 Z M86,442 L62,442 L42,457 L66,457 Z M79,494 L59,480 L66,503 L86,518 Z M151,518 L126,518 L106,532 L131,532 Z M151,518 L126,518 L106,503 L131,503 Z M195,503 L171,503 L151,518 L175,518 Z M215,518 L195,503 L203,527 L223,541 Z M223,494 L215,518 L223,541 L230,518 Z M178,480 L171,503 L151,518 L158,494 Z M171,457 L151,442 L158,465 L178,480 Z M267,480 L287,494 L295,518 L275,503 Z M267,480 L243,480 L223,494 L247,494 Z M295,518 L287,541 L295,565 L302,541 Z M295,518 L287,541 L267,556 L275,532 Z M320,518 L339,532 L347,556 L327,541 Z M367,541 L392,541 L372,556 L347,556 Z M392,541 L384,565 L364,579 L372,556 Z M411,556 L404,579 L411,603 L419,579 Z M364,579 L384,594 L392,617 L372,603 Z M347,603 L372,603 L392,617 L367,617 Z M315,579 L339,579 L320,594 L295,594 Z M267,603 L243,603 L223,617 L247,617 Z M250,579 L243,603 L223,617 L230,594 Z M223,541 L243,556 L250,579 L230,565 Z M203,556 L195,579 L203,603 L211,579 Z M203,556 L178,556 L158,541 L183,541 Z M247,541 L223,541 L243,556 L267,556 Z M295,565 L320,565 L339,579 L315,579 Z M456,541 L476,556 L484,579 L464,565 Z M528,518 L553,518 L573,503 L548,503 Z M464,518 L488,518 L508,532 L484,532 Z M431,541 L456,541 L436,556 L411,556 Z M536,494 L528,518 L548,503 L556,480 Z M573,457 L580,433 L600,419 L592,442 Z M592,442 L600,419 L608,442 L600,465 Z M267,282 L243,282 L223,296 L247,296 Z M520,419 L528,395 L536,419 L528,442 Z M392,145 L399,121 L392,98 L384,121 Z M347,159 L327,145 L320,121 L339,136 Z M347,159 L372,159 L392,145 L367,145 Z M320,121 L327,98 L347,83 L339,107 Z M295,121 L275,107 L267,83 L287,98 Z M295,121 L302,98 L295,74 L287,98 Z M367,98 L392,98 L372,83 L347,83 Z M223,145 L230,121 L223,98 L215,121 Z M178,159 L158,145 L151,121 L171,136 Z M315,182 L339,182 L320,168 L295,168 Z " fill="rgb(0, 0, 0)"/>
<path d="M295,320 L275,305 L255,320 L275,334 Z M295,320 L320,320 L327,343 L302,343 Z M295,320 L320,320 L327,296 L302,296 Z M287,296 L295,273 L275,258 L267,282 Z M287,343 L267,357 L275,381 L295,366 Z M295,273 L320,273 L327,296 L302,296 Z M315,258 L295,244 L275,258 L295,273 Z M339,258 L320,273 L327,296 L347,282 Z M339,258 L347,235 L327,220 L320,244 Z M339,258 L364,258 L372,282 L347,282 Z M359,244 L384,244 L392,220 L367,220 Z M347,235 L327,220 L347,206 L367,220 Z M364,258 L384,244 L392,267 L372,282 Z M404,258 L411,235 L392,220 L384,244 Z M392,220 L411,206 L404,182 L384,197 Z M384,197 L392,174 L372,159 L364,182 Z M411,206 L436,206 L444,182 L419,182 Z M411,235 L392,220 L411,206 L431,220 Z M411,235 L436,235 L444,258 L419,258 Z M367,220 L392,220 L384,197 L359,197 Z M339,182 L347,159 L327,145 L320,168 Z M339,182 L364,182 L372,159 L347,159 Z M327,220 L347,206 L339,182 L320,197 Z M302,220 L327,220 L320,197 L295,197 Z M295,197 L275,182 L295,168 L315,182 Z M295,244 L275,258 L267,235 L287,220 Z M295,244 L320,244 L327,220 L302,220 Z M287,220 L267,206 L247,220 L267,235 Z M287,220 L295,197 L275,182 L267,206 Z M247,220 L223,220 L230,197 L255,197 Z M275,182 L295,168 L287,145 L267,159 Z M275,182 L250,182 L243,159 L267,159 Z M267,159 L275,136 L255,121 L247,145 Z M295,168 L320,168 L327,145 L302,145 Z M250,182 L230,197 L223,174 L243,159 Z M243,159 L223,145 L203,159 L223,174 Z M223,220 L203,206 L183,220 L203,235 Z M223,220 L230,197 L211,182 L203,206 Z M230,244 L211,258 L203,235 L223,220 Z M203,206 L178,206 L171,182 L195,182 Z M195,182 L171,182 L178,159 L203,159 Z M178,206 L158,220 L151,197 L171,182 Z M158,220 L134,220 L126,197 L151,197 Z M151,197 L158,174 L138,159 L131,182 Z M134,220 L114,235 L106,211 L126,197 Z M126,197 L106,182 L86,197 L106,211 Z M106,258 L86,244 L66,258 L86,273 Z M106,258 L114,235 L94,220 L86,244 Z M86,244 L62,244 L54,220 L79,220 Z M131,258 L106,258 L114,235 L138,235 Z M138,282 L114,282 L106,258 L131,258 Z M171,258 L151,244 L131,258 L151,273 Z M171,258 L178,235 L158,220 L151,244 Z M178,282 L158,296 L151,273 L171,258 Z M195,258 L171,258 L178,235 L203,235 Z M203,282 L178,282 L171,258 L195,258 Z M175,320 L151,320 L158,343 L183,343 Z M175,320 L151,320 L158,296 L183,296 Z M215,320 L195,334 L203,357 L223,343 Z M215,320 L195,305 L175,320 L195,334 Z M215,320 L223,296 L203,282 L195,305 Z M203,357 L178,357 L171,381 L195,381 Z M195,381 L171,381 L178,404 L203,404 Z M178,357 L171,381 L151,366 L158,343 Z M171,381 L151,395 L158,419 L178,404 Z M171,381 L151,366 L131,381 L151,395 Z M131,381 L106,381 L114,404 L138,404 Z M138,357 L114,357 L106,381 L131,381 Z M106,381 L86,395 L94,419 L114,404 Z M106,381 L86,366 L66,381 L86,395 Z M86,395 L62,395 L54,419 L79,419 Z M106,334 L99,357 L79,343 L86,320 Z M126,320 L106,305 L86,320 L106,334 Z M86,320 L62,320 L54,296 L79,296 Z M86,320 L62,320 L54,343 L79,343 Z M131,334 L106,334 L114,357 L138,357 Z M151,320 L131,334 L138,357 L158,343 Z M151,320 L158,296 L138,282 L131,305 Z M131,305 L106,305 L114,282 L138,282 Z M106,305 L86,320 L79,296 L99,282 Z M79,296 L86,273 L66,258 L59,282 Z M79,343 L59,357 L66,381 L86,366 Z M62,320 L42,305 L22,320 L42,334 Z M42,334 L34,357 L14,343 L22,320 Z M42,305 L22,320 L14,296 L34,282 Z M34,357 L14,372 L22,395 L42,381 Z M59,357 L34,357 L42,381 L66,381 Z M34,282 L42,258 L22,244 L14,267 Z M59,282 L34,282 L42,258 L66,258 Z M62,244 L42,258 L34,235 L54,220 Z M54,220 L62,197 L42,182 L34,206 Z M79,220 L54,220 L62,197 L86,197 Z M106,182 L86,197 L79,174 L99,159 Z M126,121 L106,107 L86,121 L106,136 Z M99,159 L79,145 L59,159 L79,174 Z M99,159 L106,136 L86,121 L79,145 Z M138,159 L114,159 L106,136 L131,136 Z M151,121 L158,98 L138,83 L131,107 Z M158,145 L138,159 L131,136 L151,121 Z M131,107 L106,107 L114,83 L138,83 Z M175,121 L151,121 L158,98 L183,98 Z M195,136 L203,112 L183,98 L175,121 Z M203,83 L178,83 L171,60 L195,60 Z M223,98 L203,83 L183,98 L203,112 Z M223,98 L230,74 L211,60 L203,83 Z M230,74 L211,60 L230,45 L250,60 Z M255,121 L275,107 L267,83 L247,98 Z M255,121 L230,121 L223,98 L247,98 Z M267,83 L243,83 L250,60 L275,60 Z M287,98 L295,74 L275,60 L267,83 Z M275,60 L295,45 L287,22 L267,36 Z M275,60 L250,60 L243,36 L267,36 Z M295,45 L319,45 L327,22 L302,22 Z M295,74 L275,60 L295,45 L315,60 Z M211,60 L230,45 L223,22 L203,36 Z M195,60 L171,60 L178,36 L203,36 Z M178,83 L158,98 L151,74 L171,60 Z M302,98 L327,98 L319,74 L295,74 Z M327,98 L347,83 L339,60 L319,74 Z M339,60 L347,36 L327,22 L319,45 Z M339,60 L364,60 L372,36 L347,36 Z M347,83 L372,83 L364,60 L339,60 Z M384,74 L364,60 L384,45 L404,60 Z M419,60 L444,60 L436,36 L411,36 Z M404,60 L411,36 L392,22 L384,45 Z M464,74 L444,60 L464,45 L484,60 Z M456,98 L464,74 L444,60 L436,83 Z M411,83 L436,83 L444,60 L419,60 Z M392,98 L411,83 L404,60 L384,74 Z M439,121 L464,121 L456,98 L431,98 Z M411,112 L392,98 L411,83 L431,98 Z M419,136 L439,121 L431,98 L411,112 Z M411,159 L419,136 L399,121 L392,145 Z M411,159 L436,159 L444,136 L419,136 Z M464,121 L484,107 L476,83 L456,98 Z M456,174 L436,159 L456,145 L476,159 Z M464,197 L484,182 L476,159 L456,174 Z M476,159 L484,136 L464,121 L456,145 Z M476,159 L501,159 L508,136 L484,136 Z M484,182 L508,182 L501,159 L476,159 Z M508,182 L516,159 L536,174 L528,197 Z M508,136 L488,121 L508,107 L528,121 Z M516,159 L536,145 L528,121 L508,136 Z M516,159 L536,174 L556,159 L536,145 Z M528,121 L536,98 L516,83 L508,107 Z M484,107 L508,107 L501,83 L476,83 Z M573,182 L580,159 L600,174 L592,197 Z M556,159 L580,159 L573,136 L548,136 Z M548,182 L573,182 L580,159 L556,159 Z M528,197 L553,197 L560,220 L536,220 Z M553,197 L573,182 L580,206 L560,220 Z M560,220 L580,235 L600,220 L580,206 Z M553,244 L560,220 L580,235 L573,258 Z M573,258 L592,244 L600,267 L580,282 Z M528,244 L553,244 L560,220 L536,220 Z M508,258 L528,273 L548,258 L528,244 Z M548,258 L573,258 L580,282 L556,282 Z M528,273 L548,258 L556,282 L536,296 Z M528,320 L553,320 L560,343 L536,343 Z M528,320 L553,320 L560,296 L536,296 Z M580,282 L600,296 L620,282 L600,267 Z M553,320 L573,334 L592,320 L573,305 Z M573,305 L580,282 L600,296 L592,320 Z M573,334 L592,320 L600,343 L580,357 Z M580,357 L600,372 L620,357 L600,343 Z M600,343 L625,343 L632,320 L608,320 Z M600,296 L625,296 L632,320 L608,320 Z M573,381 L580,357 L600,372 L592,395 Z M553,395 L573,381 L580,404 L560,419 Z M548,381 L573,381 L580,357 L556,357 Z M528,395 L553,395 L560,419 L536,419 Z M528,366 L536,343 L556,357 L548,381 Z M508,334 L528,320 L536,343 L516,357 Z M508,381 L528,395 L548,381 L528,366 Z M501,404 L508,381 L528,395 L520,419 Z M476,357 L501,357 L508,381 L484,381 Z M476,357 L501,357 L508,334 L484,334 Z M476,404 L501,404 L508,381 L484,381 Z M456,419 L436,433 L444,457 L464,442 Z M456,419 L481,419 L488,442 L464,442 Z M464,442 L456,465 L476,480 L484,457 Z M436,404 L444,381 L464,395 L456,419 Z M481,419 L501,404 L508,428 L488,442 Z M488,442 L508,457 L528,442 L508,428 Z M508,457 L528,442 L536,465 L516,480 Z M516,480 L536,494 L556,480 L536,465 Z M516,480 L508,503 L528,518 L536,494 Z M528,442 L553,442 L560,419 L536,419 Z M484,457 L508,457 L501,480 L476,480 Z M476,480 L456,494 L464,518 L484,503 Z M476,480 L501,480 L508,503 L484,503 Z M456,465 L476,480 L456,494 L436,480 Z M411,480 L392,494 L399,518 L419,503 Z M411,480 L436,480 L444,503 L419,503 Z M419,503 L411,527 L431,541 L439,518 Z M392,465 L411,480 L392,494 L372,480 Z M419,457 L444,457 L436,480 L411,480 Z M411,433 L436,433 L444,457 L419,457 Z M392,419 L384,442 L404,457 L411,433 Z M411,404 L431,419 L411,433 L392,419 Z M411,404 L436,404 L444,381 L419,381 Z M384,442 L364,457 L372,480 L392,465 Z M367,419 L392,419 L384,442 L359,442 Z M359,395 L384,395 L392,419 L367,419 Z M347,404 L367,419 L347,433 L327,419 Z M339,457 L320,471 L327,494 L347,480 Z M339,457 L364,457 L372,480 L347,480 Z M347,480 L339,503 L359,518 L367,494 Z M295,471 L320,471 L327,494 L302,494 Z M295,442 L315,457 L295,471 L275,457 Z M287,419 L267,433 L275,457 L295,442 Z M287,419 L267,404 L247,419 L267,433 Z M275,457 L267,480 L287,494 L295,471 Z M275,457 L250,457 L243,480 L267,480 Z M302,419 L327,419 L320,442 L295,442 Z M295,395 L287,419 L267,404 L275,381 Z M295,395 L320,395 L327,419 L302,419 Z M327,419 L320,442 L339,457 L347,433 Z M339,381 L320,395 L327,419 L347,404 Z M339,381 L347,357 L327,343 L320,366 Z M339,381 L364,381 L372,357 L347,357 Z M315,381 L295,366 L275,381 L295,395 Z M364,381 L372,357 L392,372 L384,395 Z M392,343 L411,357 L392,372 L372,357 Z M392,343 L399,320 L419,334 L411,357 Z M411,357 L436,357 L444,381 L419,381 Z M431,343 L456,343 L464,320 L439,320 Z M404,381 L384,395 L392,419 L411,404 Z M436,357 L456,343 L464,366 L444,381 Z M444,381 L464,395 L484,381 L464,366 Z M456,343 L464,320 L484,334 L476,357 Z M456,296 L476,282 L484,305 L464,320 Z M488,320 L508,334 L528,320 L508,305 Z M508,305 L516,282 L536,296 L528,320 Z M476,282 L501,282 L508,305 L484,305 Z M476,282 L501,282 L508,258 L484,258 Z M476,235 L501,235 L508,258 L484,258 Z M456,220 L464,197 L444,182 L436,206 Z M456,220 L481,220 L488,197 L464,197 Z M444,258 L464,273 L484,258 L464,244 Z M436,235 L456,220 L464,244 L444,258 Z M436,282 L444,258 L464,273 L456,296 Z M411,282 L436,282 L444,258 L419,258 Z M392,296 L411,282 L419,305 L399,320 Z M392,296 L372,282 L392,267 L411,282 Z M431,296 L456,296 L464,320 L439,320 Z M399,320 L419,334 L439,320 L419,305 Z M359,320 L339,334 L347,357 L367,343 Z M359,320 L339,305 L320,320 L339,334 Z M359,320 L367,296 L347,282 L339,305 Z M359,320 L384,320 L392,343 L367,343 Z M359,320 L384,320 L392,296 L367,296 Z M481,220 L488,197 L508,211 L501,235 Z M501,235 L520,220 L528,244 L508,258 Z M488,197 L508,211 L528,197 L508,182 Z M295,366 L320,366 L327,343 L302,343 Z M267,357 L275,334 L255,320 L247,343 Z M267,357 L243,357 L250,381 L275,381 Z M255,395 L230,395 L223,419 L247,419 Z M243,357 L223,372 L230,395 L250,381 Z M243,357 L223,343 L203,357 L223,372 Z M230,395 L223,419 L203,404 L211,381 Z M223,419 L203,433 L211,457 L230,442 Z M223,419 L203,404 L183,419 L203,433 Z M203,433 L178,433 L171,457 L195,457 Z M247,419 L223,419 L230,442 L255,442 Z M158,419 L134,419 L126,442 L151,442 Z M178,433 L171,457 L151,442 L158,419 Z M151,442 L131,457 L138,480 L158,465 Z M134,419 L126,442 L106,428 L114,404 Z M126,442 L106,428 L86,442 L106,457 Z M106,457 L99,480 L79,465 L86,442 Z M79,419 L54,419 L62,442 L86,442 Z M54,419 L34,433 L42,457 L62,442 Z M62,395 L54,419 L34,404 L42,381 Z M99,480 L79,494 L86,518 L106,503 Z M99,480 L79,465 L59,480 L79,494 Z M126,518 L106,503 L86,518 L106,532 Z M131,532 L106,532 L114,556 L138,556 Z M151,518 L131,532 L138,556 L158,541 Z M158,494 L151,518 L131,503 L138,480 Z M175,518 L151,518 L158,541 L183,541 Z M195,503 L175,518 L183,541 L203,527 Z M203,480 L178,480 L171,503 L195,503 Z M195,457 L171,457 L178,480 L203,480 Z M223,494 L215,518 L195,503 L203,480 Z M178,480 L158,465 L138,480 L158,494 Z M138,480 L114,480 L106,503 L131,503 Z M131,457 L106,457 L114,480 L138,480 Z M243,480 L223,465 L203,480 L223,494 Z M247,494 L223,494 L230,518 L255,518 Z M255,518 L247,541 L267,556 L275,532 Z M255,518 L230,518 L223,541 L247,541 Z M267,480 L247,494 L255,518 L275,503 Z M275,503 L295,518 L275,532 L255,518 Z M295,518 L320,518 L327,541 L302,541 Z M302,541 L327,541 L320,565 L295,565 Z M287,541 L267,556 L275,579 L295,565 Z M302,494 L327,494 L320,518 L295,518 Z M327,541 L320,565 L339,579 L347,556 Z M339,503 L359,518 L339,532 L320,518 Z M347,556 L372,556 L364,579 L339,579 Z M359,518 L339,532 L347,556 L367,541 Z M359,518 L384,518 L392,541 L367,541 Z M367,494 L392,494 L384,518 L359,518 Z M392,541 L384,565 L404,579 L411,556 Z M411,527 L431,541 L411,556 L392,541 Z M411,556 L436,556 L444,579 L419,579 Z M384,565 L404,579 L384,594 L364,579 Z M404,579 L384,594 L392,617 L411,603 Z M339,579 L320,594 L327,617 L347,603 Z M339,579 L364,579 L372,603 L347,603 Z M295,594 L320,594 L327,617 L302,617 Z M275,579 L267,603 L287,617 L295,594 Z M275,579 L250,579 L243,603 L267,603 Z M230,565 L250,579 L230,594 L211,579 Z M223,541 L203,556 L211,579 L230,565 Z M223,541 L203,527 L183,541 L203,556 Z M211,579 L203,603 L223,617 L230,594 Z M203,556 L178,556 L171,579 L195,579 Z M195,579 L171,579 L178,603 L203,603 Z M178,556 L171,579 L151,565 L158,541 Z M267,556 L243,556 L250,579 L275,579 Z M295,565 L315,579 L295,594 L275,579 Z M419,579 L444,579 L436,603 L411,603 Z M464,565 L484,579 L464,594 L444,579 Z M456,541 L436,556 L444,579 L464,565 Z M484,532 L508,532 L501,556 L476,556 Z M528,518 L508,532 L516,556 L536,541 Z M508,503 L528,518 L508,532 L488,518 Z M464,518 L456,541 L476,556 L484,532 Z M439,518 L464,518 L456,541 L431,541 Z M573,457 L592,442 L600,465 L580,480 Z M556,480 L580,480 L573,503 L548,503 Z M548,457 L573,457 L580,480 L556,480 Z M553,442 L560,419 L580,433 L573,457 Z M560,419 L580,433 L600,419 L580,404 Z M250,457 L243,480 L223,465 L230,442 Z M247,343 L223,343 L230,320 L255,320 Z M247,296 L223,296 L230,320 L255,320 Z M267,282 L247,296 L255,320 L275,305 Z M267,282 L243,282 L250,258 L275,258 Z M243,282 L223,267 L203,282 L223,296 Z M243,282 L250,258 L230,244 L223,267 Z M419,182 L444,182 L436,159 L411,159 Z M392,174 L372,159 L392,145 L411,159 Z M367,145 L392,145 L384,121 L359,121 Z M359,121 L367,98 L347,83 L339,107 Z M359,121 L384,121 L392,98 L367,98 Z M347,159 L367,145 L359,121 L339,136 Z M339,136 L320,121 L339,107 L359,121 Z M302,145 L327,145 L320,121 L295,121 Z M295,121 L320,121 L327,98 L302,98 Z M275,136 L255,121 L275,107 L295,121 Z M247,145 L223,145 L230,121 L255,121 Z M223,145 L203,159 L195,136 L215,121 Z M203,159 L178,159 L171,136 L195,136 Z M178,159 L158,145 L138,159 L158,174 Z M131,182 L106,182 L114,159 L138,159 Z M255,244 L230,244 L223,220 L247,220 Z " fill="transparent"/>
</g></svg>