<?xml version="1.0" encoding="UTF-8"?>
<svg id="Layer_1" data-name="Layer 1" xmlns="http://www.w3.org/2000/svg" xmlns:xlink="http://www.w3.org/1999/xlink" viewBox="0 0 1422.4 667.53">
  <defs>
    <style>
      .cls-1 {
        fill: none;
      }

      .cls-2 {
        clip-path: url(#clippath-1);
      }

      .cls-3 {
        clip-path: url(#clippath);
      }
    </style>
    <clipPath id="clippath">
      <rect class="cls-1" x="307.76" y="168.18" width="806.89" height="331.17"/>
    </clipPath>
    <clipPath id="clippath-1">
      <rect class="cls-1" x="307.76" y="168.18" width="806.89" height="331.17"/>
    </clipPath>
  </defs>
  <g id="sdu-syddansk">
    <g class="cls-3">
      <g class="cls-2">
        <path d="M1114.65,299.03c-15.7,3.8-46.12,8.49-66.36,8.49-41.81,0-51.13-23.86-53.21-34.16-16.33-3.7-43.22-1.75-56.17,1.21,12.76,2.8,20.32,12.67,22.59,30.88,1.53-.54,7.91-2.63,14.53-2.63,14.19,0,26.21,16.36,26.21,34.49,0,26.82-15.06,46.71-29.62,46.71-9.93,0-13.01-4.83-16.37-4.83s-6.05,4.98-15.58,4.98c-14.82,0-31.15-21.97-31.15-46.95,0-11.53,6.17-34.56,30.64-34.56,6.25,0,9.43,1.63,10.18,2.08-.41-12.62-9.47-23.96-25.8-23.96-13.87,0-47.57,13.38-71.94,34.01l-7.24-10.12c22.95-17.19,72.2-41.83,129.27-41.83,7.88,0,15.06.58,21.07,1.57,2.77-7.36,11.4-21.61,36.85-21.61,39.9,0,69.36,33.95,82.11,56.22M1035.33,168.18c-73.97,16.12-102.4,55.1-102.4,83.96,77.27-9.34,67.83-57.8,102.4-83.96M813.37,196.67h-35.66v109.58c.01,45.5-38.57,46.21-43.55,46.21s-43.56-.71-43.56-46.21v-109.58h-35.66v106.95c0,57.31,37.65,80.54,79.22,80.54s79.22-23.23,79.22-80.54v-106.95ZM625.92,289.1c0,7.02-.85,92.44-100.35,92.44h-58.09v-184.87h58.09c99.5,0,100.35,85.42,100.35,92.43M590.27,289.1c0-22.33-12.79-60.74-60.73-60.74h-26.41v121.49h26.41c47.95,0,60.73-38.41,60.73-60.74M307.76,356.42c19,17.44,41.97,27.74,66.79,27.74,33.27,0,62.59-22.71,62.59-55.45,0-62.31-85.3-53.09-85.3-82.93,0-14.24,15.06-20.05,28.52-20.05,12.15,0,24.56,5.27,31.95,12.15l18.5-26.41c-17.42-12.93-34.86-17.43-53.62-17.43-30.62,0-60.99,19.01-60.99,52.02,0,58.97,85.29,46.47,85.29,83.19,0,13.44-11.09,23.21-26.94,23.21-16.89,0-33-8.71-43.57-20.32l-23.22,24.28Z"/>
        <path d="M313.59,474.9c1.22,1.49,2.67,2.75,4.36,3.77,1.69,1.02,3.59,1.53,5.72,1.53.94,0,1.86-.15,2.74-.44.88-.29,1.65-.72,2.3-1.27s1.17-1.2,1.56-1.94c.39-.74.59-1.59.59-2.53,0-1.57-.48-2.84-1.44-3.8s-2.16-1.8-3.59-2.5c-1.43-.71-2.98-1.37-4.63-2-1.65-.63-3.16-1.39-4.54-2.3-1.49-.98-2.74-2.2-3.74-3.65-1-1.45-1.5-3.26-1.5-5.42,0-1.49.31-2.91.94-4.24.63-1.33,1.5-2.5,2.62-3.51,1.12-1,2.44-1.79,3.95-2.36,1.51-.57,3.17-.85,4.98-.85,1.3,0,2.5.13,3.62.38,1.12.26,2.14.59,3.06,1,.92.41,1.75.85,2.47,1.33.73.47,1.36.94,1.91,1.41l-3.48,4.3c-2.24-1.89-4.69-2.83-7.36-2.83-.86,0-1.7.12-2.5.35s-1.53.59-2.18,1.06c-.65.47-1.17,1.05-1.56,1.74-.39.69-.59,1.48-.59,2.39,0,1.3.48,2.38,1.44,3.24.96.86,2.16,1.64,3.59,2.33,1.43.69,2.97,1.37,4.6,2.03,1.63.67,3.11,1.43,4.45,2.3.71.47,1.37,1,2,1.59.63.59,1.2,1.27,1.71,2.03.51.77.91,1.63,1.21,2.59.29.96.44,2.03.44,3.21,0,1.81-.33,3.45-1,4.92-.67,1.47-1.57,2.73-2.71,3.77-1.14,1.04-2.48,1.85-4.04,2.42-1.55.57-3.23.85-5.04.85-2.83,0-5.48-.59-7.95-1.77-2.47-1.18-4.64-2.89-6.48-5.13l4.07-4.01Z"/>
        <polygon points="343.46 499.35 350.94 482.32 339.1 457.52 345.11 457.52 353.77 475.78 361.73 457.52 367.62 457.52 349.41 499.35 343.46 499.35"/>
        <path d="M394.9,482.68c-1.14,1.02-2.44,1.8-3.89,2.33-1.45.53-3,.8-4.65.8-1.26,0-2.49-.17-3.71-.5-1.22-.33-2.3-.78-3.24-1.33-2.12-1.26-3.83-2.98-5.13-5.16-1.3-2.18-1.94-4.66-1.94-7.45s.66-5.28,1.97-7.48c1.32-2.2,3.03-3.93,5.16-5.18.94-.55,1.98-.98,3.12-1.3s2.36-.47,3.65-.47c1.49,0,2.96.25,4.42.74,1.45.49,2.81,1.25,4.07,2.27v-16.56h5.6v41.83h-5.42v-2.53ZM394.72,466.18c-.87-1.14-1.97-2.08-3.33-2.83-1.36-.75-2.88-1.12-4.57-1.12-1.34,0-2.55.25-3.65.74-1.1.49-2.03,1.16-2.8,2-.77.84-1.36,1.82-1.8,2.92-.43,1.1-.65,2.26-.65,3.48s.22,2.44.68,3.54c.45,1.1,1.09,2.06,1.91,2.89.82.82,1.8,1.48,2.92,1.97,1.12.49,2.35.74,3.68.74,1.41,0,2.8-.34,4.15-1.03,1.36-.69,2.5-1.66,3.45-2.92v-10.37Z"/>
        <path d="M431.72,482.68c-1.14,1.02-2.44,1.8-3.89,2.33-1.45.53-3,.8-4.65.8-1.26,0-2.49-.17-3.71-.5-1.22-.33-2.3-.78-3.24-1.33-2.12-1.26-3.83-2.98-5.13-5.16-1.3-2.18-1.94-4.66-1.94-7.45s.66-5.28,1.97-7.48c1.32-2.2,3.03-3.93,5.16-5.18.94-.55,1.98-.98,3.12-1.3s2.36-.47,3.65-.47c1.49,0,2.96.25,4.42.74,1.45.49,2.81,1.25,4.07,2.27v-16.56h5.6v41.83h-5.42v-2.53ZM431.55,466.18c-.87-1.14-1.97-2.08-3.33-2.83-1.36-.75-2.88-1.12-4.57-1.12-1.34,0-2.55.25-3.65.74-1.1.49-2.03,1.16-2.8,2-.77.84-1.36,1.82-1.8,2.92s-.65,2.26-.65,3.48.22,2.44.68,3.54c.45,1.1,1.09,2.06,1.91,2.89.82.82,1.8,1.48,2.92,1.97,1.12.49,2.35.74,3.68.74,1.41,0,2.8-.34,4.15-1.03,1.36-.69,2.5-1.66,3.45-2.92v-10.37Z"/>
        <path d="M468.55,482.68c-1.14,1.02-2.44,1.8-3.89,2.33-1.45.53-3,.8-4.65.8-1.26,0-2.49-.17-3.71-.5-1.22-.33-2.3-.78-3.24-1.33-2.12-1.26-3.83-2.98-5.13-5.16-1.3-2.18-1.94-4.66-1.94-7.45s.66-5.28,1.97-7.48c1.32-2.2,3.03-3.93,5.16-5.18.94-.55,1.98-.98,3.12-1.3s2.36-.47,3.65-.47c1.57,0,3.09.25,4.57.74,1.47.49,2.84,1.29,4.09,2.39v-2.53h5.42v27.69h-5.42v-2.53ZM468.37,466.18c-.87-1.14-1.97-2.08-3.33-2.83-1.36-.75-2.88-1.12-4.57-1.12-1.34,0-2.55.25-3.65.74-1.1.49-2.03,1.16-2.8,2-.77.84-1.36,1.82-1.8,2.92s-.65,2.26-.65,3.48.22,2.44.68,3.54c.45,1.1,1.09,2.06,1.91,2.89.82.82,1.8,1.48,2.92,1.97,1.12.49,2.35.74,3.68.74,1.41,0,2.8-.34,4.15-1.03,1.36-.69,2.5-1.66,3.45-2.92v-10.37Z"/>
        <path d="M490.59,460.17c.75-.71,1.82-1.42,3.21-2.15,1.39-.73,3.09-1.09,5.1-1.09s3.94.44,5.69,1.33c1.75.88,3.21,2.07,4.39,3.56.9,1.14,1.58,2.46,2.03,3.98s.68,3.47.68,5.86v13.55h-5.6v-13.85c0-1.77-.15-3.12-.44-4.07-.29-.94-.7-1.73-1.21-2.36-.67-.82-1.5-1.48-2.5-1.97-1-.49-2.07-.74-3.21-.74-1.85,0-3.43.4-4.74,1.21-1.32.81-2.39,1.72-3.21,2.74v19.03h-5.6v-27.69h5.42v2.65Z"/>
        <path d="M522.52,477.85c2.63,2.04,5.36,3.06,8.19,3.06,1.22,0,2.33-.3,3.33-.91,1-.61,1.5-1.46,1.5-2.56,0-.79-.27-1.41-.8-1.89-.53-.47-1.21-.85-2.03-1.15s-1.75-.56-2.77-.8c-1.02-.24-2.05-.53-3.06-.88-.82-.27-1.62-.62-2.39-1.03-.77-.41-1.44-.91-2.03-1.5-.59-.59-1.06-1.26-1.41-2-.35-.75-.53-1.61-.53-2.59,0-1.49.3-2.78.91-3.86s1.39-1.97,2.36-2.68,2.05-1.24,3.27-1.59c1.22-.35,2.45-.53,3.71-.53,2.04,0,3.81.28,5.3.85,1.49.57,2.79,1.31,3.89,2.21l-2.89,4.01c-.86-.67-1.79-1.2-2.77-1.59-.98-.39-2.04-.59-3.18-.59-1.38,0-2.56.3-3.54.91-.98.61-1.47,1.46-1.47,2.56,0,.94.48,1.63,1.44,2.06.96.43,2.13.82,3.51,1.18,1.1.27,2.24.62,3.42,1.03,1.18.41,2.26.95,3.24,1.62.98.67,1.8,1.5,2.45,2.5s.97,2.21.97,3.62c0,1.3-.29,2.47-.85,3.54-.57,1.06-1.33,1.95-2.27,2.68-.94.73-2.05,1.29-3.3,1.68-1.26.39-2.55.59-3.89.59-4.32,0-8.05-1.28-11.19-3.83l2.89-4.12Z"/>
        <polygon points="577.08 485.21 569.6 485.21 555.87 471.66 555.87 485.21 550.27 485.21 550.27 443.38 555.87 443.38 555.87 468.12 567.42 457.52 575.31 457.52 561.46 470.01 577.08 485.21"/>
        <path d="M617.14,485.8c-2.55,0-4.93-.48-7.13-1.44-2.2-.96-4.09-2.29-5.66-3.98-1.34-1.45-2.39-3.16-3.15-5.13-.77-1.96-1.15-4.34-1.15-7.13v-24.16h5.89v24.45c0,1.96.23,3.58.68,4.86.45,1.28,1.09,2.37,1.91,3.27,1.02,1.14,2.27,2.03,3.74,2.68,1.47.65,3.09.97,4.86.97s3.39-.32,4.86-.97c1.47-.65,2.72-1.54,3.74-2.68.82-.9,1.46-1.99,1.91-3.27.45-1.28.68-2.9.68-4.86v-24.45h5.89v24.16c0,2.79-.38,5.17-1.15,7.13-.77,1.96-1.82,3.67-3.15,5.13-1.57,1.69-3.46,3.01-5.66,3.98-2.2.96-4.58,1.44-7.13,1.44"/>
        <path d="M650.55,460.17c.75-.71,1.82-1.42,3.21-2.15,1.39-.73,3.09-1.09,5.1-1.09s3.94.44,5.69,1.33c1.75.88,3.21,2.07,4.39,3.56.9,1.14,1.58,2.46,2.03,3.98.45,1.51.68,3.47.68,5.86v13.55h-5.6v-13.85c0-1.77-.15-3.12-.44-4.07-.29-.94-.7-1.73-1.21-2.36-.67-.82-1.5-1.48-2.5-1.97-1-.49-2.07-.74-3.21-.74-1.85,0-3.43.4-4.74,1.21-1.32.81-2.39,1.72-3.21,2.74v19.03h-5.6v-27.69h5.42v2.65Z"/>
        <path d="M681.36,447.68c0-1.02.35-1.89,1.06-2.62.71-.73,1.57-1.09,2.59-1.09s1.9.36,2.62,1.09c.73.73,1.09,1.6,1.09,2.62s-.37,1.89-1.09,2.59c-.72.71-1.6,1.06-2.62,1.06s-1.89-.35-2.59-1.06c-.7-.71-1.06-1.57-1.06-2.59M682.25,457.52h5.6v27.69h-5.6v-27.69Z"/>
        <polygon points="694.62 457.52 700.39 457.52 708.58 476.37 716.77 457.52 722.55 457.52 710.53 485.21 706.64 485.21 694.62 457.52"/>
        <path d="M732.39,472.54c.08,1.18.36,2.27.85,3.27.49,1,1.13,1.89,1.91,2.65.79.77,1.71,1.36,2.77,1.8,1.06.43,2.2.65,3.42.65,2.04,0,3.68-.4,4.92-1.21,1.24-.81,2.25-1.66,3.03-2.56l3.65,3.48c-1.02,1.34-2.51,2.53-4.48,3.59s-4.36,1.59-7.19,1.59c-2,0-3.88-.36-5.63-1.09-1.75-.73-3.27-1.73-4.57-3-1.3-1.28-2.31-2.8-3.03-4.57-.73-1.77-1.09-3.69-1.09-5.77s.33-4.01,1-5.77,1.6-3.29,2.8-4.57c1.2-1.28,2.62-2.28,4.27-3s3.46-1.09,5.42-1.09,3.7.36,5.33,1.09,3.03,1.74,4.21,3.03c1.18,1.3,2.1,2.83,2.77,4.6.67,1.77,1,3.67,1,5.72v.47c0,.2-.02.43-.06.71h-21.33ZM740.64,461.82c-1.81,0-3.44.55-4.89,1.65-1.45,1.1-2.42,2.55-2.89,4.36h15.08c-.2-.86-.54-1.67-1.03-2.42s-1.06-1.38-1.71-1.91c-.65-.53-1.36-.94-2.15-1.24-.79-.29-1.59-.44-2.42-.44"/>
        <path d="M777.87,462.47c-.59-.15-1.32-.24-2.18-.24-1.45,0-2.87.44-4.24,1.33-1.37.88-2.45,1.99-3.24,3.33v18.32h-5.6v-27.69h5.42v3.18c.67-.94,1.71-1.81,3.12-2.59,1.41-.79,3.14-1.18,5.18-1.18.31,0,.68,0,1.09.03.41.02.78.07,1.09.15l-.65,5.36Z"/>
        <path d="M786.71,477.85c2.63,2.04,5.36,3.06,8.19,3.06,1.22,0,2.33-.3,3.33-.91,1-.61,1.5-1.46,1.5-2.56,0-.79-.27-1.41-.8-1.89-.53-.47-1.21-.85-2.03-1.15-.82-.29-1.75-.56-2.77-.8-1.02-.24-2.05-.53-3.06-.88-.82-.27-1.62-.62-2.39-1.03-.77-.41-1.44-.91-2.03-1.5s-1.06-1.26-1.41-2c-.35-.75-.53-1.61-.53-2.59,0-1.49.3-2.78.91-3.86s1.39-1.97,2.36-2.68c.96-.71,2.05-1.24,3.27-1.59,1.22-.35,2.45-.53,3.71-.53,2.04,0,3.81.28,5.3.85,1.49.57,2.79,1.31,3.89,2.21l-2.89,4.01c-.86-.67-1.79-1.2-2.77-1.59-.98-.39-2.04-.59-3.18-.59-1.38,0-2.56.3-3.54.91-.98.61-1.47,1.46-1.47,2.56,0,.94.48,1.63,1.44,2.06.96.43,2.13.82,3.51,1.18,1.1.27,2.24.62,3.42,1.03,1.18.41,2.26.95,3.24,1.62.98.67,1.8,1.5,2.45,2.5.65,1,.97,2.21.97,3.62,0,1.3-.29,2.47-.85,3.54-.57,1.06-1.33,1.95-2.27,2.68s-2.04,1.29-3.3,1.68c-1.26.39-2.55.59-3.89.59-4.32,0-8.05-1.28-11.19-3.83l2.89-4.12Z"/>
        <path d="M813.58,447.68c0-1.02.35-1.89,1.06-2.62.71-.73,1.57-1.09,2.59-1.09s1.9.36,2.62,1.09c.73.73,1.09,1.6,1.09,2.62s-.36,1.89-1.09,2.59c-.73.71-1.6,1.06-2.62,1.06s-1.89-.35-2.59-1.06-1.06-1.57-1.06-2.59M814.46,457.52h5.6v27.69h-5.6v-27.69Z"/>
        <path d="M848.34,485.21c-.55.2-1.22.34-2,.44-.79.1-1.57.15-2.36.15-1.77,0-3.29-.28-4.57-.85-1.28-.57-2.37-1.36-3.27-2.39-.82-.9-1.4-1.98-1.74-3.24-.33-1.26-.5-2.63-.5-4.12v-12.67h-7.07v-5.01h7.07v-7.66h5.6v7.66h8.84v5.01h-8.84v12.96c0,.75.05,1.41.15,2,.1.59.32,1.1.68,1.53.39.47.94.83,1.65,1.09.71.26,1.43.38,2.18.38.43,0,.94-.03,1.53-.09.59-.06,1.1-.15,1.53-.27l1.12,5.07Z"/>
        <path d="M859.36,472.54c.08,1.18.36,2.27.85,3.27.49,1,1.13,1.89,1.91,2.65.79.77,1.71,1.36,2.77,1.8,1.06.43,2.2.65,3.42.65,2.04,0,3.68-.4,4.92-1.21,1.24-.81,2.25-1.66,3.03-2.56l3.65,3.48c-1.02,1.34-2.51,2.53-4.48,3.59s-4.36,1.59-7.19,1.59c-2,0-3.88-.36-5.63-1.09-1.75-.73-3.27-1.73-4.57-3-1.3-1.28-2.31-2.8-3.03-4.57-.73-1.77-1.09-3.69-1.09-5.77s.33-4.01,1-5.77,1.6-3.29,2.8-4.57c1.2-1.28,2.62-2.28,4.27-3s3.46-1.09,5.42-1.09,3.7.36,5.33,1.09c1.63.73,3.03,1.74,4.21,3.03,1.18,1.3,2.1,2.83,2.77,4.6.67,1.77,1,3.67,1,5.72v.47c0,.2-.02.43-.06.71h-21.33ZM867.61,461.82c-1.81,0-3.44.55-4.89,1.65-1.45,1.1-2.42,2.55-2.89,4.36h15.08c-.2-.86-.54-1.67-1.03-2.42s-1.06-1.38-1.71-1.91c-.65-.53-1.36-.94-2.15-1.24-.79-.29-1.59-.44-2.42-.44"/>
        <path d="M906.67,485.21c-.55.2-1.22.34-2,.44-.79.1-1.57.15-2.36.15-1.77,0-3.29-.28-4.57-.85-1.28-.57-2.37-1.36-3.27-2.39-.82-.9-1.4-1.98-1.74-3.24-.33-1.26-.5-2.63-.5-4.12v-12.67h-7.07v-5.01h7.07v-7.66h5.6v7.66h8.84v5.01h-8.84v12.96c0,.75.05,1.41.15,2,.1.59.32,1.1.68,1.53.39.47.94.83,1.65,1.09.71.26,1.43.38,2.18.38.43,0,.94-.03,1.53-.09.59-.06,1.1-.15,1.53-.27l1.12,5.07Z"/>
      </g>
    </g>
  </g>
</svg>